<svg width="508" height="435" viewBox="0 0 508 435" fill="none" xmlns="http://www.w3.org/2000/svg">
<path d="M392.399 136.5C244.799 -29.1001 72.232 -8.83347 4.3987 21.9999L8.39844 33.5C19.5984 30.3 29.0651 34.8333 32.3984 37.5C49.9984 46.3 96.0651 52.1667 116.898 54C124.098 56.4 129.898 53 131.898 51L141.898 41.5C151.498 31.5 162.232 41 166.399 47L171.898 70L207.898 101.5C219.098 111.5 222.899 130.333 223.399 138.5L264.898 170C273.298 177.6 271.065 183.5 268.898 185.5L254.398 204.5L233.398 201.5L245.398 207C231.798 218.6 222.732 215.833 219.898 213C196.298 206.2 185.065 214.167 182.399 219C172.799 225.4 167.732 221.667 166.399 219C126.399 205.4 105.399 217 99.8987 224.5C87.0989 222.9 79.8986 229.167 77.8984 232.5L36.8984 285C10.0984 312.2 1.39861 343.667 0.398697 356C-2.4013 370 10.232 393.167 16.8987 403C19.2987 406.2 17.8987 413.667 16.8987 417C12.0987 429.4 15.8987 433.833 18.3987 434.5H84.3987C84.7987 420.5 69.5654 384 61.8987 367.5V360.5L99.8987 299.5L138.899 302.5L161.399 299.5L182.399 309.5L166.399 332C164.799 335.6 162.399 335.833 161.399 335.5L135.899 332L118.899 378L135.899 385L195.899 367.5L240.899 296.5L223.399 273.5L251.399 257.5C266.232 266.833 295.399 288.3 293.399 299.5C291.399 310.7 294.232 318.5 295.899 321L321.899 341C345.399 353 355.399 330 355.399 321C355.399 313.8 364.065 308.667 368.399 307L425.899 257.5L411.399 230.5C434.199 254.5 484.899 255.167 507.399 252.5C443.799 234.9 426.565 199.167 425.899 183.5L440.899 193C449.299 168.6 412.065 145.167 392.399 136.5Z" fill="#DEDEDE"/>
</svg>
