<svg width="1099" height="712" viewBox="0 0 1099 712" fill="none" xmlns="http://www.w3.org/2000/svg">
<path d="M0 572.585L1098.07 572.585" stroke="#5E576D"/>
<path d="M0 418.71L1098.07 418.71" stroke="#5E576D"/>
<path d="M0 264.834L1098.07 264.834" stroke="#5E576D"/>
<path d="M0 110.958L1098.07 110.958" stroke="#5E576D"/>
<path d="M1016.42 649L1016.42 1.63317e-05" stroke="#5E576D"/>
<path d="M708.666 649L708.666 1.63317e-05" stroke="#5E576D"/>
<path d="M390.447 649L390.447 1.63317e-05" stroke="#5E576D"/>
<path d="M82.6953 649L82.6952 1.63317e-05" stroke="#5E576D"/>
<rect x="827.533" y="235" width="24.6808" height="80.5524" rx="5" fill="#5E576D"/>
<path d="M839.533 202V347.206" stroke="#5E576D" stroke-width="3"/>
<rect x="699.533" y="363.83" width="24.6808" height="80.5524" rx="5" fill="#5E576D"/>
<path d="M711.38 327.794V473" stroke="#5E576D" stroke-width="3"/>
<rect x="657.533" y="420.037" width="24.6808" height="80.5524" rx="5" fill="#5E576D"/>
<path d="M669.38 384V529.206" stroke="#5E576D" stroke-width="3"/>
<rect x="741.533" y="318.476" width="24.8481" height="45.0373" rx="5" fill="#5E576D"/>
<path d="M753.38 282.756V427.963" stroke="#5E576D" stroke-width="3"/>
<rect x="784.533" y="358.077" width="24.8481" height="46.5903" rx="5" fill="#5E576D"/>
<path d="M796.181 327.794L796.181 433.398" stroke="#5E576D" stroke-width="3"/>
<rect x="487.533" y="545.83" width="24.6808" height="80.5524" rx="5" fill="#5E576D"/>
<path d="M499.38 509.794V655" stroke="#5E576D" stroke-width="3"/>
<rect x="445.533" y="602.037" width="24.6808" height="80.5524" rx="5" fill="#5E576D"/>
<path d="M457.38 566V711.206" stroke="#5E576D" stroke-width="3"/>
<rect x="615.533" y="420.037" width="24.6808" height="80.5524" rx="5" fill="#5E576D"/>
<path d="M627.38 384V529.206" stroke="#5E576D" stroke-width="3"/>
<rect x="529.533" y="500.476" width="24.8481" height="45.0373" rx="5" fill="#5E576D"/>
<path d="M541.38 464.756V609.963" stroke="#5E576D" stroke-width="3"/>
<rect x="572.533" y="540.077" width="24.8481" height="46.5903" rx="5" fill="#5E576D"/>
<path d="M584.181 509.794L584.181 615.398" stroke="#5E576D" stroke-width="3"/>
</svg>
