<svg width="373" height="428" viewBox="0 0 373 428" fill="none" xmlns="http://www.w3.org/2000/svg">
<path d="M371.88 109.58V108.99C371.88 108.33 371.76 107.69 371.53 107.1C371.42 106.82 371.27 106.55 371.08 106.32C370.68 105.82 370.18 105.39 369.59 105.06L369.12 104.78C369.06 104.74 368.99 104.71 368.92 104.67L189.3 0.95C188.23 0.34 186.89 0 185.5 0C184.13 0 182.79 0.33 181.73 0.93L139.1 25.71C129.9 31.06 124.84 38.34 124.86 46.22C124.87 54.15 130 61.47 139.31 66.83C148.09 71.91 159.57 74.7 171.63 74.7C173.57 74.7 175.53 74.62 177.45 74.48C180.23 74.27 183.06 74.16 185.87 74.16C202.8 74.16 218.69 77.95 230.61 84.83C242.01 91.42 248.32 100 248.38 108.99C248.43 117.96 242.22 126.53 230.9 133.11C230.29 133.46 229.69 133.8 229.08 134.14C217.59 140.32 202.39 143.73 186.33 143.73C170.21 143.73 154.94 140.3 143.32 134.07L142.82 133.8C142.41 133.58 142 133.35 141.6 133.12C128.24 125.41 121.94 115 124.31 104.56C126.33 95.62 121.06 86.55 110.23 80.29C101.46 75.23 89.9 72.45 77.67 72.45C65.43 72.45 53.9 75.23 45.18 80.29L3.13 104.73C3.01 104.78 2.89 104.85 2.77 104.92C2.56 105.04 2.41 105.16 2.32 105.22C2.21 105.3 2.11 105.39 2.01 105.49C1.1 106.35 0.6 107.6 0.6 109V109.96L0 316.17C0 317.42 0.39 318.77 1.09 319.96C1.77 321.14 2.73 322.14 3.78 322.75L46.68 347.51C52.05 350.61 57.25 352.18 62.14 352.18C74.41 352.18 82.36 342.34 82.4 327.11C82.44 315.3 77.92 301.89 69.99 290.31C58.8 273.97 52.4 255.35 52.44 239.23C52.49 226.13 56.81 216.47 64.6 212.03C67.67 210.28 71.22 209.39 75.13 209.39C81 209.39 87.67 211.45 94.42 215.34C94.97 215.66 95.56 216.01 96.18 216.4C119.44 230.86 138.26 263.49 139.04 290.71C139.06 291.38 139.06 292.04 139.06 292.69C139.01 308.01 133.1 318.56 122.83 321.63C114.02 324.25 108.74 333.26 108.71 345.74C108.68 355.82 112.04 367.21 118.16 377.81C124.28 388.41 132.48 397.03 141.24 402.09L183.21 426.33L184.1 426.85C184.51 427.09 184.96 427.28 185.47 427.41C185.72 427.48 185.98 427.51 186.24 427.51C186.5 427.51 186.76 427.48 187.01 427.41C187.52 427.27 187.98 427.08 188.4 426.83L189.29 426.32L231.25 402.09C240.02 397.03 248.21 388.41 254.33 377.81C260.45 367.21 263.81 355.82 263.78 345.74C263.75 333.3 258.45 324.28 249.6 321.6C239.36 318.51 233.47 307.97 233.42 292.68C233.38 278.99 238.02 263.38 246.48 248.73C254.94 234.07 266.17 222.22 278.07 215.35C278.74 214.96 279.31 214.64 279.83 214.37C285.98 211.09 291.82 209.44 297.21 209.44C310.65 209.44 319.39 220.12 320 237.3C320.02 237.94 320.04 238.58 320.04 239.22C320.09 255.37 313.67 274.02 302.44 290.41C294.67 301.71 290.05 315.43 290.08 327.12C290.13 342.34 298.09 352.18 310.35 352.18C315.24 352.18 320.45 350.61 325.82 347.51L368.7 322.75C369.75 322.15 370.72 321.15 371.42 319.94C372.11 318.75 372.49 317.42 372.49 316.18L371.88 109.58ZM149.67 295.37C149.67 294.61 149.66 293.83 149.64 293.05C148.69 261.21 126.69 223.06 99.55 206.15C98.88 205.73 98.16 205.29 97.42 204.86C88.93 199.96 80.74 197.48 73.07 197.48C54.16 197.48 41.9 212.82 41.84 236.56C41.79 255.53 49.22 277.3 62.24 296.29C68.26 305.09 71.84 315.61 71.81 324.45C71.79 331.47 69.54 336.61 65.49 338.92C63.93 339.81 62.12 340.26 60.1 340.26C56.96 340.26 53.36 339.14 49.69 337.02L10.63 314.46L11.18 119.49L180.89 217.47L180.34 412.44L144.25 391.62C137.61 387.78 131.34 381.15 126.61 372.96C121.88 364.76 119.29 356.05 119.32 348.42C119.34 340.36 122.34 334.67 127.33 333.2C141.27 329.04 149.62 314.9 149.67 295.37ZM134.01 140.97C134.6 141.31 135.24 141.67 136.07 142.12C149.78 149.46 167.63 153.5 186.33 153.5C204.98 153.5 222.75 149.48 236.35 142.17C237.13 141.76 237.88 141.33 238.51 140.97C252.95 132.58 260.88 121.25 260.86 109.07C260.84 96.81 252.78 85.42 238.17 76.98C224.14 68.87 205.56 64.4 185.86 64.4C182.61 64.4 179.33 64.53 176.12 64.77C174.63 64.89 173.12 64.94 171.62 64.94C162.47 64.94 153.46 62.77 146.88 58.98C140.76 55.44 137.37 50.92 137.35 46.25C137.32 41.58 140.65 37.07 146.72 33.54L185.52 10.99L355.24 108.97L186.65 206.93L16.94 108.97L52.78 88.15C59.36 84.33 68.2 82.22 77.67 82.22C87.14 82.22 96.01 84.33 102.65 88.15C109.67 92.21 113.17 97.66 112.02 102.73C108.8 116.87 117.02 131.17 134.01 140.97ZM330.64 236.56C330.64 236.06 330.63 235.55 330.62 235.03L330.6 234.28C330.6 234.26 330.6 234.24 330.6 234.22C330.19 223.16 327.04 213.9 321.49 207.44C315.92 200.96 308.24 197.53 299.29 197.53C292.31 197.53 284.88 199.6 277.21 203.68C276.44 204.09 275.74 204.48 275.07 204.86C261.02 212.97 247.87 226.83 238.02 243.88C228.17 260.93 222.78 279.22 222.82 295.37C222.85 305.18 224.84 313.49 228.75 320.09C232.6 326.59 238.25 331.11 245.08 333.17C250.13 334.69 253.15 340.39 253.17 348.42C253.19 356.03 250.6 364.75 245.86 372.96C241.12 381.16 234.86 387.78 228.23 391.6L192.14 412.44L191.59 217.47L361.3 119.49L361.85 314.46L322.78 337.02C319.11 339.14 315.51 340.26 312.37 340.26C310.36 340.26 308.54 339.81 306.96 338.92C302.92 336.6 300.68 331.46 300.66 324.46C300.64 315.61 304.19 305.12 310.17 296.41C323.23 277.38 330.69 255.57 330.64 236.56Z" fill="#DEDEDE"/>
</svg>
