<svg width="374" height="428" viewBox="0 0 374 428" fill="none" xmlns="http://www.w3.org/2000/svg">
<path d="M373.2 112.08V111.52C373.2 110.23 372.97 108.98 372.51 107.8C372.22 107.04 371.81 106.33 371.3 105.69C370.51 104.7 369.54 103.87 368.42 103.22L367.98 102.96C367.87 102.89 367.75 102.83 367.64 102.77L192.44 1.61C190.6 0.55 188.43 0 186.16 0C183.92 0 181.77 0.55 179.95 1.58C179.93 1.59 179.91 1.6 179.9 1.61L138.3 25.79C127.67 31.97 121.82 40.66 121.84 50.27C121.86 59.92 127.78 68.64 138.51 74.84C147.85 80.24 159.97 83.21 172.63 83.21C174.66 83.21 176.7 83.13 178.71 82.98C181.29 82.78 183.92 82.68 186.53 82.68C202.16 82.68 216.75 86.13 227.62 92.41C237.1 97.89 242.35 104.69 242.39 111.57C242.43 118.4 237.28 125.17 227.89 130.63C227.34 130.95 226.79 131.26 226.24 131.56C215.75 137.19 201.81 140.29 186.98 140.29C172.09 140.29 158.06 137.16 147.46 131.49L147 131.24L146.95 131.21C146.61 131.02 146.27 130.84 145.93 130.64C134.95 124.3 129.69 116.18 131.47 108.34C133.96 97.3 127.91 86.35 115.29 79.06C105.96 73.68 93.76 70.72 80.94 70.72C68.11 70.72 55.93 73.68 46.65 79.07L5.81 102.81C5.62 102.9 5.44001 103 5.26001 103.1C4.79001 103.37 4.45001 103.62 4.32001 103.72C4.04001 103.93 3.77002 104.16 3.52002 104.4C1.62002 106.22 0.580017 108.75 0.580017 111.52V112.46L0 313.7C0 315.87 0.610029 318.05 1.78003 320.03C2.87003 321.91 4.44998 323.54 6.22998 324.58L48.13 348.76C54.16 352.24 60.1 354.01 65.79 354.01C80.65 354.01 90.66 342.12 90.71 324.41C90.75 311.87 86.01 297.72 77.7 285.58C67.35 270.47 61.44 253.37 61.47 238.65C61.51 227.79 64.8 219.95 70.74 216.57C72.95 215.31 75.55 214.67 78.47 214.67C83.3 214.67 88.92 216.44 94.72 219.79C95.21 220.07 95.73 220.39 96.29 220.73C117.68 234.02 134.99 264.02 135.7 289.04C135.72 289.64 135.72 290.22 135.72 290.82C135.68 303.33 131.25 311.83 123.55 314.13C112.66 317.37 106.13 328 106.09 342.58C106.06 353.31 109.58 365.35 116 376.47C122.42 387.59 131.09 396.67 140.41 402.05L181.37 425.71L182.23 426.21C183 426.66 183.88 427.03 184.82 427.28C185.5 427.46 186.2 427.55 186.9 427.55C187.6 427.55 188.3 427.46 188.98 427.28C189.94 427.02 190.8 426.66 191.62 426.17L192.44 425.69L233.39 402.04C242.71 396.66 251.38 387.57 257.8 376.46C264.22 365.34 267.74 353.31 267.71 342.58C267.68 328.06 261.14 317.41 250.22 314.11C242.55 311.79 238.12 303.3 238.09 290.79C238.06 278.32 242.34 264.01 250.14 250.48C257.96 236.95 268.24 226.05 279.09 219.78C279.69 219.43 280.18 219.16 280.61 218.93C285.89 216.12 290.78 214.7 295.2 214.7C305.41 214.7 311.8 223.01 312.3 236.93C312.32 237.5 312.33 238.06 312.33 238.62C312.37 253.37 306.44 270.52 296.05 285.67C287.9 297.52 283.05 312.01 283.08 324.41C283.14 342.11 293.16 353.99 308.01 353.99C313.7 353.99 319.64 352.22 325.68 348.74L367.53 324.57C369.32 323.54 370.94 321.9 372.06 319.95C373.19 317.99 373.79 315.83 373.79 313.7L373.2 112.08ZM156.33 293.42C156.33 292.63 156.32 291.85 156.3 291.06C156.3 291.04 156.3 291.02 156.3 290.99C155.83 275.13 150.31 257.27 140.76 240.7C131.21 224.14 118.51 210.38 104.99 201.96C104.29 201.53 103.55 201.07 102.77 200.62C93.69 195.38 84.83 192.73 76.44 192.73C65.77 192.73 56.72 196.99 50.28 205.04C44.12 212.75 40.84 223.45 40.81 236C40.76 255.53 48.34 277.84 61.62 297.22C66.93 304.98 70.08 314.16 70.06 321.78C70.05 326.64 68.74 330.16 66.49 331.44C65.75 331.86 64.84 332.07 63.78 332.07C61.65 332.07 58.96 331.19 56.19 329.6L20.65 309.08L21.15 130.66L176.5 220.35L176 398.77L148.47 382.88C142.76 379.58 137.31 373.78 133.13 366.55C128.97 359.33 126.68 351.74 126.7 345.2C126.71 339.9 128.34 336 130.83 335.26C146.75 330.51 156.27 314.87 156.33 293.42ZM109.43 104.27C105.76 120.37 114.69 136.42 133.33 147.18C133.95 147.54 134.61 147.91 135.48 148.37C149.6 155.93 167.88 160.09 186.97 160.09C206.01 160.09 224.21 155.95 238.22 148.42C239.03 147.99 239.81 147.55 240.46 147.17C256.21 138.01 264.87 125.37 264.85 111.57C264.83 97.7 256.05 84.99 240.13 75.8C225.67 67.44 206.62 62.84 186.51 62.84C183.21 62.84 179.88 62.97 176.61 63.22C175.29 63.32 173.94 63.37 172.61 63.37C164.56 63.37 156.7 61.5 151.04 58.24C146.78 55.78 144.33 52.86 144.32 50.25C144.3 47.65 146.7 44.76 150.9 42.32L186.19 21.81L341.55 111.5L187.27 201.15L31.92 111.46L59.22 95.6C64.87 92.32 72.58 90.51 80.93 90.51C89.28 90.51 97.03 92.32 102.74 95.61C107.38 98.32 110.01 101.71 109.43 104.27ZM332.95 236C332.95 235.48 332.94 234.94 332.93 234.4L332.91 233.68V233.56C332.47 221.58 328.97 211.45 322.77 204.24C316.33 196.74 307.48 192.78 297.2 192.78C289.54 192.78 281.47 195 273.23 199.38C272.43 199.8 271.7 200.21 270.99 200.62C256.51 208.98 243 223.18 232.95 240.58C222.89 258 217.38 276.76 217.43 293.42C217.46 303.92 219.65 312.92 223.94 320.15C228.37 327.62 234.9 332.83 242.82 335.22C245.38 335.99 247.04 339.91 247.06 345.19C247.08 351.73 244.79 359.31 240.62 366.56C236.44 373.78 231 379.58 225.3 382.86L197.77 398.75L197.27 220.33L352.62 130.64L353.12 309.06L317.58 329.58C314.82 331.17 312.13 332.05 310 332.05C308.93 332.05 308.01 331.83 307.25 331.41C305.03 330.13 303.73 326.6 303.71 321.76C303.69 314.12 306.82 304.98 312.08 297.31C325.39 277.92 333 255.57 332.95 236Z" fill="black"/>
</svg>
