<svg width="352" height="396" viewBox="0 0 352 396" fill="none" xmlns="http://www.w3.org/2000/svg">
<path d="M170.67 209.516L170.18 387.836C170.16 393.386 164.16 396.846 159.35 394.076L134.06 379.486C127.41 375.636 121.15 369.016 116.41 360.826C111.69 352.636 109.1 343.916 109.12 336.296C109.14 328.236 112.14 322.546 117.13 321.066C131.07 316.906 139.42 302.766 139.48 283.236C139.48 282.476 139.46 281.696 139.45 280.916C138.5 249.076 116.5 210.926 89.34 194.016C88.67 193.596 87.95 193.146 87.22 192.726C78.73 187.826 70.54 185.346 62.87 185.346C43.96 185.346 31.7 200.686 31.64 224.426C31.59 243.396 39.02 265.166 52.03 284.156C58.05 292.956 61.63 303.476 61.6 312.316C61.58 319.336 59.34 324.476 55.28 326.786C53.72 327.676 51.91 328.126 49.89 328.126C46.76 328.126 43.16 327.006 39.49 324.886L4.05 304.426C1.81 303.136 0.429995 300.736 0.439995 298.156L0.929995 119.836C0.949995 114.286 6.96 110.826 11.76 113.606L167.06 203.256C169.3 204.536 170.68 206.926 170.67 209.516Z" fill="black"/>
<path d="M351.65 298.126C351.66 300.716 350.28 303.106 348.04 304.396L312.6 324.866C308.92 326.986 305.33 328.106 302.19 328.106C300.18 328.106 298.36 327.656 296.78 326.756C292.74 324.436 290.5 319.296 290.48 312.296C290.45 303.436 294.01 292.956 299.98 284.246C313.04 265.226 320.5 243.416 320.44 224.406C320.44 223.906 320.43 223.396 320.42 222.876L320.41 222.136C320.4 222.116 320.4 222.096 320.4 222.076C320 211.016 316.85 201.756 311.29 195.286C305.72 188.806 298.04 185.376 289.09 185.376C282.11 185.376 274.68 187.446 267 191.526C266.23 191.936 265.53 192.326 264.86 192.706C250.82 200.816 237.66 214.676 227.82 231.726C217.97 248.776 212.57 267.066 212.62 283.216C212.64 293.026 214.64 301.336 218.55 307.936C222.41 314.436 228.05 318.956 234.88 321.016C239.93 322.536 242.95 328.236 242.97 336.266C243 343.886 240.4 352.596 235.67 360.816C230.93 369.006 224.66 375.626 218.04 379.456L192.75 394.056C187.94 396.826 181.93 393.376 181.92 387.826L181.41 209.506C181.4 206.916 182.78 204.526 185.02 203.236L340.3 113.576C345.11 110.796 351.12 114.256 351.13 119.806L351.65 298.126Z" fill="black"/>
<path d="M334.25 103.106L180.06 192.706C177.82 194.006 175.06 194.006 172.82 192.716L17.54 103.076C12.73 100.306 12.72 93.3663 17.52 90.5763L42.58 76.0163C49.16 72.1963 58 70.0863 67.47 70.0863C76.94 70.0863 85.81 72.1963 92.45 76.0163C99.47 80.0763 102.97 85.5263 101.82 90.6063C98.6 104.736 106.82 119.026 123.8 128.836C124.39 129.176 125.03 129.536 125.87 129.986C139.58 137.326 157.43 141.366 176.13 141.366C194.78 141.366 212.55 137.346 226.15 130.036C226.93 129.626 227.68 129.196 228.31 128.836C242.74 120.446 250.68 109.126 250.66 96.9463C250.64 84.6863 242.58 73.2863 227.97 64.8563C213.94 56.7463 195.36 52.2763 175.66 52.2763C172.41 52.2763 169.13 52.3963 165.92 52.6463C164.43 52.7663 162.92 52.8263 161.41 52.8263C152.27 52.8263 143.25 50.6463 136.68 46.8663C130.56 43.3163 127.17 38.7963 127.15 34.1363C127.12 29.4663 130.44 24.9563 136.52 21.4263L171.69 0.976254C173.93 -0.323746 176.69 -0.323746 178.93 0.966254L334.24 90.6063C339.04 93.3863 339.05 100.316 334.25 103.106Z" fill="black"/>
</svg>
