<svg width="72" height="72" viewBox="0 0 72 72" fill="none" xmlns="http://www.w3.org/2000/svg">
<path d="M36 22.9091C28.7673 22.9091 22.9091 28.7673 22.9091 36C22.9091 43.2327 28.7673 49.0909 36 49.0909C43.2327 49.0909 49.0909 43.2327 49.0909 36C49.0909 28.7673 43.2327 22.9091 36 22.9091ZM65.2582 32.7273C63.7527 19.08 52.92 8.24727 39.2727 6.74182V0H32.7273V6.74182C19.08 8.24727 8.24727 19.08 6.74182 32.7273H0V39.2727H6.74182C8.24727 52.92 19.08 63.7527 32.7273 65.2582V72H39.2727V65.2582C52.92 63.7527 63.7527 52.92 65.2582 39.2727H72V32.7273H65.2582ZM36 58.9091C23.3345 58.9091 13.0909 48.6655 13.0909 36C13.0909 23.3345 23.3345 13.0909 36 13.0909C48.6655 13.0909 58.9091 23.3345 58.9091 36C58.9091 48.6655 48.6655 58.9091 36 58.9091Z" fill="#F4F4F4"/>
</svg>
