<svg width="460" height="829" viewBox="0 0 460 829" fill="none" xmlns="http://www.w3.org/2000/svg">
<path d="M435.875 130.886H24.105V742.332H435.875V130.886Z" fill="#5E576D"/>
<path d="M416.616 814.54H43.3424C32.7272 814.54 24.105 805.918 24.105 795.303V742.332H435.875V795.303C435.875 805.918 427.253 814.54 416.616 814.54Z" fill="#F9F9F9"/>
<path d="M437.979 67H20V26.1499C20 17.7807 26.0017 11 33.4094 11H424.591C431.998 11 438 17.7807 438 26.1499V67H437.979Z" fill="#0F0E10"/>
<path d="M302.03 22.3425H169.613V52.0484H302.03V22.3425Z" fill="#CCCCCC"/>
<path d="M349.862 168.166H68.9156C59.2234 168.166 51.2935 177.119 51.2935 188.063V553.603V615L84.5237 582.028H349.862C359.555 582.028 367.484 573.074 367.484 562.13V188.063C367.484 177.119 359.555 168.166 349.862 168.166Z" fill="white"/>
<path d="M100.665 770.203L104.849 780.645L109.032 770.203H111.221V783H109.533V778.017L109.691 772.638L105.49 783H104.198L100.006 772.664L100.173 778.017V783H98.4854V770.203H100.665ZM117.892 783.176C116.603 783.176 115.554 782.754 114.745 781.91C113.937 781.061 113.532 779.927 113.532 778.509V778.21C113.532 777.267 113.711 776.426 114.068 775.688C114.432 774.943 114.936 774.363 115.58 773.947C116.23 773.525 116.934 773.314 117.689 773.314C118.926 773.314 119.887 773.722 120.572 774.536C121.258 775.351 121.601 776.517 121.601 778.034V778.711H115.158C115.182 779.648 115.454 780.407 115.976 780.987C116.503 781.562 117.171 781.849 117.979 781.849C118.554 781.849 119.04 781.731 119.438 781.497C119.837 781.263 120.186 780.952 120.484 780.565L121.478 781.339C120.681 782.563 119.485 783.176 117.892 783.176ZM117.689 774.65C117.033 774.65 116.482 774.891 116.037 775.371C115.592 775.846 115.316 776.514 115.211 777.375H119.975V777.252C119.928 776.426 119.705 775.787 119.307 775.336C118.908 774.879 118.369 774.65 117.689 774.65ZM129.027 780.478C129.027 780.038 128.86 779.698 128.526 779.458C128.198 779.212 127.621 779.001 126.795 778.825C125.975 778.649 125.321 778.438 124.835 778.192C124.354 777.946 123.997 777.653 123.763 777.313C123.534 776.974 123.42 776.569 123.42 776.101C123.42 775.321 123.748 774.662 124.404 774.123C125.066 773.584 125.91 773.314 126.936 773.314C128.014 773.314 128.887 773.593 129.555 774.149C130.229 774.706 130.565 775.418 130.565 776.285H128.931C128.931 775.84 128.74 775.456 128.359 775.134C127.984 774.812 127.51 774.65 126.936 774.65C126.344 774.65 125.881 774.779 125.547 775.037C125.213 775.295 125.046 775.632 125.046 776.048C125.046 776.44 125.201 776.736 125.512 776.936C125.822 777.135 126.382 777.325 127.19 777.507C128.005 777.688 128.664 777.905 129.168 778.157C129.672 778.409 130.044 778.714 130.284 779.071C130.53 779.423 130.653 779.854 130.653 780.363C130.653 781.213 130.313 781.896 129.634 782.411C128.954 782.921 128.072 783.176 126.988 783.176C126.227 783.176 125.553 783.041 124.967 782.771C124.381 782.502 123.921 782.127 123.587 781.646C123.259 781.16 123.095 780.636 123.095 780.073H124.721C124.75 780.618 124.967 781.052 125.371 781.374C125.781 781.69 126.32 781.849 126.988 781.849C127.604 781.849 128.096 781.726 128.465 781.479C128.84 781.228 129.027 780.894 129.027 780.478ZM138.309 780.478C138.309 780.038 138.142 779.698 137.808 779.458C137.479 779.212 136.902 779.001 136.076 778.825C135.256 778.649 134.603 778.438 134.116 778.192C133.636 777.946 133.278 777.653 133.044 777.313C132.815 776.974 132.701 776.569 132.701 776.101C132.701 775.321 133.029 774.662 133.686 774.123C134.348 773.584 135.191 773.314 136.217 773.314C137.295 773.314 138.168 773.593 138.836 774.149C139.51 774.706 139.847 775.418 139.847 776.285H138.212C138.212 775.84 138.021 775.456 137.641 775.134C137.266 774.812 136.791 774.65 136.217 774.65C135.625 774.65 135.162 774.779 134.828 775.037C134.494 775.295 134.327 775.632 134.327 776.048C134.327 776.44 134.482 776.736 134.793 776.936C135.104 777.135 135.663 777.325 136.472 777.507C137.286 777.688 137.945 777.905 138.449 778.157C138.953 778.409 139.325 778.714 139.565 779.071C139.812 779.423 139.935 779.854 139.935 780.363C139.935 781.213 139.595 781.896 138.915 782.411C138.235 782.921 137.354 783.176 136.27 783.176C135.508 783.176 134.834 783.041 134.248 782.771C133.662 782.502 133.202 782.127 132.868 781.646C132.54 781.16 132.376 780.636 132.376 780.073H134.002C134.031 780.618 134.248 781.052 134.652 781.374C135.062 781.69 135.602 781.849 136.27 781.849C136.885 781.849 137.377 781.726 137.746 781.479C138.121 781.228 138.309 780.894 138.309 780.478ZM147.924 783C147.83 782.812 147.754 782.479 147.695 781.998C146.939 782.783 146.037 783.176 144.988 783.176C144.051 783.176 143.28 782.912 142.677 782.385C142.079 781.852 141.78 781.178 141.78 780.363C141.78 779.373 142.155 778.605 142.905 778.061C143.661 777.51 144.722 777.234 146.087 777.234H147.669V776.487C147.669 775.919 147.499 775.468 147.159 775.134C146.819 774.794 146.318 774.624 145.656 774.624C145.076 774.624 144.59 774.771 144.197 775.063C143.805 775.356 143.608 775.711 143.608 776.127H141.974C141.974 775.652 142.141 775.195 142.475 774.756C142.814 774.311 143.271 773.959 143.846 773.701C144.426 773.443 145.062 773.314 145.753 773.314C146.849 773.314 147.707 773.59 148.328 774.141C148.949 774.686 149.271 775.438 149.295 776.399V780.776C149.295 781.649 149.406 782.344 149.629 782.859V783H147.924ZM145.226 781.761C145.735 781.761 146.219 781.629 146.676 781.365C147.133 781.102 147.464 780.759 147.669 780.337V778.386H146.395C144.402 778.386 143.406 778.969 143.406 780.135C143.406 780.645 143.576 781.043 143.916 781.33C144.256 781.617 144.692 781.761 145.226 781.761ZM151.457 778.166C151.457 776.684 151.8 775.506 152.485 774.633C153.171 773.754 154.079 773.314 155.21 773.314C156.37 773.314 157.275 773.725 157.926 774.545L158.005 773.49H159.49V782.771C159.49 784.002 159.124 784.972 158.392 785.681C157.665 786.39 156.687 786.744 155.456 786.744C154.771 786.744 154.1 786.598 153.443 786.305C152.787 786.012 152.286 785.61 151.94 785.101L152.784 784.125C153.481 784.986 154.334 785.417 155.342 785.417C156.133 785.417 156.748 785.194 157.188 784.749C157.633 784.304 157.855 783.677 157.855 782.868V782.051C157.205 782.801 156.317 783.176 155.192 783.176C154.079 783.176 153.177 782.728 152.485 781.831C151.8 780.935 151.457 779.713 151.457 778.166ZM153.092 778.351C153.092 779.423 153.312 780.267 153.751 780.882C154.19 781.491 154.806 781.796 155.597 781.796C156.622 781.796 157.375 781.33 157.855 780.398V776.057C157.357 775.148 156.61 774.694 155.614 774.694C154.823 774.694 154.205 775.002 153.76 775.617C153.314 776.232 153.092 777.144 153.092 778.351ZM165.897 783.176C164.608 783.176 163.56 782.754 162.751 781.91C161.942 781.061 161.538 779.927 161.538 778.509V778.21C161.538 777.267 161.717 776.426 162.074 775.688C162.438 774.943 162.941 774.363 163.586 773.947C164.236 773.525 164.939 773.314 165.695 773.314C166.932 773.314 167.893 773.722 168.578 774.536C169.264 775.351 169.606 776.517 169.606 778.034V778.711H163.164C163.188 779.648 163.46 780.407 163.981 780.987C164.509 781.562 165.177 781.849 165.985 781.849C166.56 781.849 167.046 781.731 167.444 781.497C167.843 781.263 168.191 780.952 168.49 780.565L169.483 781.339C168.687 782.563 167.491 783.176 165.897 783.176ZM165.695 774.65C165.039 774.65 164.488 774.891 164.043 775.371C163.598 775.846 163.322 776.514 163.217 777.375H167.98V777.252C167.934 776.426 167.711 775.787 167.312 775.336C166.914 774.879 166.375 774.65 165.695 774.65Z" fill="#868686"/>
<path d="M63.9226 791.258C70.8975 791.258 76.5518 785.604 76.5518 778.629C76.5518 771.654 70.8975 766 63.9226 766C56.9477 766 51.2935 771.654 51.2935 778.629C51.2935 785.604 56.9477 791.258 63.9226 791.258Z" stroke="#868686" stroke-miterlimit="10"/>
<path d="M69.209 781.125C69.209 783.622 66.8384 785.636 63.9224 785.636C61.0063 785.636 58.6357 783.622 58.6357 781.125" stroke="#868686" stroke-miterlimit="10" stroke-linecap="round"/>
<path d="M58.8453 777.727C59.7722 777.727 60.5236 776.976 60.5236 776.049C60.5236 775.122 59.7722 774.371 58.8453 774.371C57.9184 774.371 57.167 775.122 57.167 776.049C57.167 776.976 57.9184 777.727 58.8453 777.727Z" fill="#868686"/>
<path d="M69.0201 777.727C69.947 777.727 70.6984 776.976 70.6984 776.049C70.6984 775.122 69.947 774.371 69.0201 774.371C68.0932 774.371 67.3418 775.122 67.3418 776.049C67.3418 776.976 68.0932 777.727 69.0201 777.727Z" fill="#868686"/>
<path d="M373.966 769.93C374.218 770.329 374.47 770.707 374.7 771.105C376.211 773.748 376.022 776.769 374.113 778.699C370.274 782.602 366.393 786.462 362.512 790.301C360.791 792 358.211 791.979 355.903 790.343C355.84 790.301 355.736 790.259 355.652 790.217C355.316 789.881 354.98 789.545 354.645 789.21C354.015 788.203 353.491 787.175 353.407 786C353.323 784.595 353.68 783.399 354.582 782.497C358.127 778.93 361.693 775.364 365.26 771.818C366.623 770.455 368.931 770.686 370.505 772.28C372.015 773.811 372.183 776.077 370.861 777.42C368.994 779.308 367.106 781.175 365.239 783.042C364.903 783.378 364.547 783.546 364.064 783.168C363.686 782.853 363.707 782.35 364.148 781.93C365.952 780.126 367.756 778.322 369.561 776.518C370.567 775.511 370.547 774.189 369.519 773.182C368.512 772.175 367.169 772.154 366.162 773.161C362.742 776.581 359.323 780 355.903 783.42C354.435 784.888 354.561 787.196 356.155 788.811C357.75 790.406 360.057 790.531 361.547 789.063C364.966 785.643 368.386 782.245 371.805 778.804C372.477 778.112 373.19 777.42 373.672 776.602C374.847 774.567 374.092 771.651 372.099 769.993C369.938 768.189 367.064 767.958 365.323 769.595C363.057 771.735 360.896 773.979 358.694 776.161C358.127 776.707 357.708 776.811 357.33 776.434C356.952 776.056 357.015 775.637 357.582 775.07C359.805 772.867 361.987 770.602 364.253 768.441C366.372 766.448 369.791 766.553 372.477 768.567C372.56 768.63 372.665 768.672 372.77 768.714C373.169 769.133 373.567 769.532 373.966 769.93Z" fill="#868686" stroke="#868686" stroke-width="0.25" stroke-miterlimit="10"/>
<path d="M403.022 769.098C403.631 769.266 404.029 769.455 404.323 769.748C404.973 770.399 405.057 770.818 405.057 771.112L405.078 772.392C405.099 774.636 405.141 776.965 405.036 779.231C404.994 780.259 403.903 781.161 402.708 781.161C401.512 781.161 400.442 780.259 400.358 779.168C400.274 777.825 400.274 776.482 400.274 775.077C400.274 774.552 400.274 774.049 400.274 773.524V773.21C400.274 772.517 400.274 771.846 400.316 771.238C400.421 770.147 401.176 769.35 402.309 769.14C402.372 769.119 402.456 769.119 402.519 769.098H403.022V769.098ZM403.274 767C402.896 767 402.519 767 402.12 767C402.057 767.021 401.994 767.063 401.931 767.084C399.896 767.462 398.428 768.993 398.239 771.028C398.155 771.846 398.176 772.685 398.176 773.524C398.176 775.454 398.134 777.384 398.26 779.314C398.407 781.538 400.442 783.258 402.708 783.258C404.973 783.258 407.05 781.517 407.134 779.314C407.26 776.566 407.197 773.818 407.155 771.091C407.134 769.958 406.589 769.035 405.791 768.259C405.078 767.545 404.197 767.21 403.274 767Z" fill="#868686"/>
<path d="M397.946 790.475C397.61 790.266 397.274 790.035 397.295 789.552C397.316 789.028 397.652 788.692 398.26 788.692C399.225 788.671 400.211 788.692 401.176 788.692C401.365 788.692 401.554 788.692 401.785 788.692C401.785 788.105 401.806 787.559 401.764 787.035C401.764 786.93 401.533 786.762 401.386 786.741C398.135 786.217 395.47 783.825 394.799 780.573C394.547 779.357 394.61 778.098 394.589 776.839C394.568 776.357 394.967 776.042 395.449 776.042C395.953 776.042 396.33 776.378 396.351 776.923C396.372 777.594 396.351 778.287 396.372 778.958C396.456 781.769 398.386 784.161 401.114 784.853C405.037 785.86 408.876 782.986 409.002 778.958C409.023 778.329 409.002 777.699 409.023 777.07C409.023 776.42 409.379 776.042 409.925 776.042C410.47 776.042 410.785 776.399 410.785 777.049C410.785 778.518 410.911 780.007 410.344 781.434C409.19 784.329 407.134 786.154 404.03 786.72C403.694 786.783 403.547 786.867 403.568 787.245C403.589 787.706 403.568 788.168 403.568 788.692C404.785 788.692 405.939 788.692 407.113 788.692C407.764 788.692 408.204 789.133 408.037 789.72C407.953 790.014 407.638 790.245 407.428 790.496C404.281 790.475 401.114 790.475 397.946 790.475Z" fill="#868686"/>
<path d="M438.154 67H22V137.53H438.154V67Z" fill="#322E39"/>
<path d="M69.3898 102.265H52.5439" stroke="white" stroke-miterlimit="10" stroke-linecap="round"/>
<path d="M60.5793 92.8667L51.3906 102.076L60.9779 111.664" stroke="white" stroke-miterlimit="10" stroke-linecap="round"/>
<path d="M130.889 108.644V98.6912H134.375C135.583 98.6912 136.499 98.9236 137.123 99.3884C137.747 99.8487 138.06 100.525 138.06 101.419C138.06 101.906 137.934 102.337 137.684 102.711C137.433 103.08 137.084 103.351 136.638 103.524C137.148 103.652 137.549 103.909 137.841 104.297C138.137 104.684 138.285 105.158 138.285 105.719C138.285 106.676 137.98 107.4 137.369 107.892C136.758 108.385 135.888 108.635 134.758 108.644H130.889ZM132.939 104.31V106.997H134.696C135.179 106.997 135.555 106.883 135.824 106.655C136.098 106.423 136.234 106.104 136.234 105.698C136.234 104.787 135.763 104.324 134.819 104.31H132.939ZM132.939 102.861H134.457C135.492 102.843 136.009 102.43 136.009 101.624C136.009 101.173 135.877 100.849 135.612 100.653C135.353 100.453 134.94 100.352 134.375 100.352H132.939V102.861ZM147.363 98.6912V105.247C147.363 106.336 147.021 107.197 146.338 107.831C145.659 108.464 144.729 108.781 143.549 108.781C142.387 108.781 141.464 108.473 140.78 107.858C140.097 107.243 139.748 106.398 139.734 105.322V98.6912H141.785V105.26C141.785 105.912 141.94 106.388 142.25 106.689C142.564 106.985 142.997 107.134 143.549 107.134C144.702 107.134 145.287 106.527 145.306 105.315V98.6912H147.363ZM151.096 106.997H155.45V108.644H149.045V98.6912H151.096V106.997ZM158.684 106.997H163.038V108.644H156.633V98.6912H158.684V106.997ZM163.817 105.965C163.817 105.504 163.945 105.078 164.2 104.686C164.46 104.294 164.934 103.859 165.622 103.381C165.326 102.984 165.093 102.613 164.925 102.266C164.756 101.915 164.672 101.551 164.672 101.173C164.672 100.398 164.916 99.769 165.403 99.2859C165.896 98.7983 166.556 98.5544 167.386 98.5544C168.129 98.5544 168.737 98.7755 169.211 99.2175C169.689 99.6596 169.929 100.211 169.929 100.872C169.929 101.665 169.528 102.364 168.726 102.97L167.96 103.524L169.676 105.52C169.945 104.992 170.079 104.408 170.079 103.77H171.761C171.761 105.065 171.462 106.113 170.865 106.915L172.355 108.644H170.113L169.601 108.056C168.867 108.539 168.024 108.781 167.071 108.781C166.087 108.781 165.299 108.524 164.706 108.009C164.114 107.489 163.817 106.808 163.817 105.965ZM167.167 107.195C167.641 107.195 168.09 107.063 168.514 106.799L166.552 104.529L166.408 104.632C166.003 104.978 165.8 105.386 165.8 105.855C165.8 106.252 165.925 106.575 166.176 106.826C166.431 107.072 166.761 107.195 167.167 107.195ZM166.442 101.145C166.442 101.487 166.643 101.918 167.044 102.437L167.57 102.089C167.839 101.915 168.024 101.747 168.124 101.583C168.229 101.419 168.281 101.223 168.281 100.995C168.281 100.767 168.197 100.569 168.028 100.4C167.86 100.232 167.643 100.147 167.379 100.147C167.096 100.147 166.868 100.238 166.695 100.421C166.527 100.603 166.442 100.844 166.442 101.145ZM173.408 108.644V98.6912H176.895C178.102 98.6912 179.018 98.9236 179.643 99.3884C180.267 99.8487 180.579 100.525 180.579 101.419C180.579 101.906 180.454 102.337 180.203 102.711C179.952 103.08 179.604 103.351 179.157 103.524C179.668 103.652 180.069 103.909 180.36 104.297C180.657 104.684 180.805 105.158 180.805 105.719C180.805 106.676 180.499 107.4 179.889 107.892C179.278 108.385 178.408 108.635 177.277 108.644H173.408ZM175.459 104.31V106.997H177.216C177.699 106.997 178.075 106.883 178.344 106.655C178.617 106.423 178.754 106.104 178.754 105.698C178.754 104.787 178.282 104.324 177.339 104.31H175.459ZM175.459 102.861H176.977C178.011 102.843 178.528 102.43 178.528 101.624C178.528 101.173 178.396 100.849 178.132 100.653C177.872 100.453 177.46 100.352 176.895 100.352H175.459V102.861ZM188.338 104.331H184.4V106.997H189.021V108.644H182.35V98.6912H189.008V100.352H184.4V102.724H188.338V104.331ZM195.844 106.594H192.248L191.564 108.644H189.384L193.089 98.6912H194.989L198.715 108.644H196.534L195.844 106.594ZM192.802 104.932H195.29L194.039 101.207L192.802 104.932ZM203.329 105.001H201.695V108.644H199.645V98.6912H203.343C204.519 98.6912 205.425 98.9532 206.063 99.4773C206.701 100.001 207.021 100.742 207.021 101.699C207.021 102.378 206.872 102.945 206.576 103.401C206.285 103.852 205.84 104.212 205.243 104.481L207.396 108.549V108.644H205.195L203.329 105.001ZM201.695 103.34H203.35C203.865 103.34 204.263 103.21 204.546 102.95C204.828 102.686 204.97 102.323 204.97 101.863C204.97 101.394 204.835 101.024 204.566 100.756C204.302 100.487 203.894 100.352 203.343 100.352H201.695V103.34ZM215.784 105.178H211.936V103.586H215.784V105.178ZM226.147 106.033C226.147 105.646 226.011 105.349 225.737 105.144C225.464 104.935 224.972 104.716 224.261 104.488C223.55 104.256 222.987 104.028 222.572 103.804C221.442 103.194 220.877 102.371 220.877 101.337C220.877 100.799 221.027 100.32 221.328 99.9011C221.633 99.4773 222.069 99.1469 222.634 98.9099C223.203 98.6729 223.841 98.5544 224.548 98.5544C225.259 98.5544 225.892 98.6843 226.448 98.9441C227.004 99.1993 227.435 99.5616 227.74 100.031C228.05 100.5 228.205 101.034 228.205 101.631H226.154C226.154 101.175 226.011 100.822 225.724 100.571C225.437 100.316 225.033 100.188 224.514 100.188C224.012 100.188 223.623 100.295 223.345 100.51C223.067 100.719 222.928 100.997 222.928 101.344C222.928 101.667 223.09 101.938 223.413 102.157C223.741 102.376 224.222 102.581 224.855 102.772C226.022 103.123 226.872 103.558 227.405 104.078C227.938 104.597 228.205 105.245 228.205 106.019C228.205 106.881 227.879 107.557 227.228 108.05C226.576 108.537 225.699 108.781 224.596 108.781C223.83 108.781 223.133 108.642 222.504 108.364C221.875 108.081 221.394 107.696 221.062 107.209C220.733 106.721 220.569 106.156 220.569 105.513H222.627C222.627 106.612 223.283 107.161 224.596 107.161C225.083 107.161 225.464 107.063 225.737 106.867C226.011 106.666 226.147 106.388 226.147 106.033ZM235.219 106.594H231.623L230.939 108.644H228.759L232.464 98.6912H234.364L238.09 108.644H235.909L235.219 106.594ZM232.177 104.932H234.665L233.414 101.207L232.177 104.932ZM241.07 106.997H245.425V108.644H239.02V98.6912H241.07V106.997ZM252.363 106.594H248.768L248.084 108.644H245.903L249.608 98.6912H251.509L255.234 108.644H253.054L252.363 106.594ZM249.321 104.932H251.81L250.559 101.207L249.321 104.932ZM264.812 106.033C264.812 105.646 264.675 105.349 264.401 105.144C264.128 104.935 263.636 104.716 262.925 104.488C262.214 104.256 261.651 104.028 261.236 103.804C260.106 103.194 259.541 102.371 259.541 101.337C259.541 100.799 259.691 100.32 259.992 99.9011C260.298 99.4773 260.733 99.1469 261.298 98.9099C261.868 98.6729 262.506 98.5544 263.212 98.5544C263.923 98.5544 264.556 98.6843 265.112 98.9441C265.668 99.1993 266.099 99.5616 266.404 100.031C266.714 100.5 266.869 101.034 266.869 101.631H264.818C264.818 101.175 264.675 100.822 264.388 100.571C264.101 100.316 263.697 100.188 263.178 100.188C262.676 100.188 262.287 100.295 262.009 100.51C261.731 100.719 261.592 100.997 261.592 101.344C261.592 101.667 261.754 101.938 262.077 102.157C262.405 102.376 262.886 102.581 263.52 102.772C264.686 103.123 265.536 103.558 266.069 104.078C266.603 104.597 266.869 105.245 266.869 106.019C266.869 106.881 266.543 107.557 265.892 108.05C265.24 108.537 264.363 108.781 263.26 108.781C262.494 108.781 261.797 108.642 261.168 108.364C260.539 108.081 260.058 107.696 259.726 107.209C259.397 106.721 259.233 106.156 259.233 105.513H261.291C261.291 106.612 261.947 107.161 263.26 107.161C263.747 107.161 264.128 107.063 264.401 106.867C264.675 106.666 264.812 106.388 264.812 106.033ZM275.756 100.352H272.707V108.644H270.656V100.352H267.648V98.6912H275.756V100.352ZM281.73 106.594H278.135L277.451 108.644H275.271L278.976 98.6912H280.876L284.602 108.644H282.421L281.73 106.594ZM278.688 104.932H281.177L279.926 101.207L278.688 104.932ZM293.625 108.644H291.574L287.582 102.095V108.644H285.531V98.6912H287.582L291.581 105.254V98.6912H293.625V108.644ZM295.416 108.644V98.6912H298.479C299.354 98.6912 300.135 98.8894 300.823 99.2859C301.516 99.6778 302.056 100.238 302.443 100.968C302.831 101.692 303.024 102.517 303.024 103.442V103.9C303.024 104.825 302.833 105.648 302.45 106.368C302.072 107.088 301.536 107.646 300.844 108.043C300.151 108.439 299.369 108.64 298.499 108.644H295.416ZM297.467 100.352V106.997H298.458C299.26 106.997 299.873 106.735 300.297 106.211C300.721 105.687 300.937 104.937 300.946 103.962V103.435C300.946 102.424 300.737 101.658 300.317 101.138C299.898 100.614 299.285 100.352 298.479 100.352H297.467ZM309.99 106.594H306.395L305.711 108.644H303.53L307.235 98.6912H309.136L312.861 108.644H310.681L309.99 106.594ZM306.948 104.932H309.437L308.186 101.207L306.948 104.932ZM317.476 105.001H315.842V108.644H313.791V98.6912H317.489C318.665 98.6912 319.572 98.9532 320.21 99.4773C320.848 100.001 321.167 100.742 321.167 101.699C321.167 102.378 321.019 102.945 320.723 103.401C320.431 103.852 319.987 104.212 319.39 104.481L321.543 108.549V108.644H319.342L317.476 105.001ZM315.842 103.34H317.496C318.011 103.34 318.41 103.21 318.692 102.95C318.975 102.686 319.116 102.323 319.116 101.863C319.116 101.394 318.982 101.024 318.713 100.756C318.449 100.487 318.041 100.352 317.489 100.352H315.842V103.34ZM322.732 108.644V98.6912H325.795C326.67 98.6912 327.451 98.8894 328.14 99.2859C328.832 99.6778 329.372 100.238 329.76 100.968C330.147 101.692 330.341 102.517 330.341 103.442V103.9C330.341 104.825 330.149 105.648 329.767 106.368C329.388 107.088 328.853 107.646 328.16 108.043C327.467 108.439 326.686 108.64 325.815 108.644H322.732ZM324.783 100.352V106.997H325.774C326.576 106.997 327.189 106.735 327.613 106.211C328.037 105.687 328.254 104.937 328.263 103.962V103.435C328.263 102.424 328.053 101.658 327.634 101.138C327.215 100.614 326.602 100.352 325.795 100.352H324.783Z" fill="white"/>
<path d="M448.357 213.437V40.384C448.357 18.0836 430.273 0 407.994 0H51.9852C29.7058 0 11.6222 18.0836 11.6222 40.384V73.4255H10.9509C4.90902 73.4255 0 78.3345 0 84.3973V108.502C0 114.565 4.90902 119.453 10.9509 119.453H11.6012V176.871C5.20272 176.871 0 182.053 0 188.473V236.661C0 243.08 5.20272 248.283 11.6222 248.283V273.248C5.20272 273.248 0 278.45 0 284.87V333.058C0 339.477 5.20272 344.68 11.6222 344.68V788.526C11.6222 810.827 29.7268 828.91 52.0062 828.91H408.015C430.294 828.91 448.378 810.827 448.378 788.526V344.68C454.797 344.68 460 339.477 460 333.058V225.06C459.958 218.64 454.755 213.437 448.357 213.437ZM282.877 31.9296C286.779 31.9296 289.947 35.0974 289.947 38.9994C289.947 42.9014 286.779 46.0692 282.877 46.0692C278.975 46.0692 275.807 42.9014 275.807 38.9994C275.807 35.0974 278.975 31.9296 282.877 31.9296ZM190.403 34.3841H252.017C254.535 34.3841 256.57 36.419 256.57 38.9365C256.57 41.4539 254.535 43.4888 252.017 43.4888H190.403C187.885 43.4888 185.85 41.4539 185.85 38.9365C185.829 36.419 187.885 34.3841 190.403 34.3841ZM435.874 789.324C435.874 803.253 424.609 814.54 410.679 814.54H49.2999C35.3911 814.54 24.0835 803.274 24.0835 789.324V39.5868C24.0835 25.657 35.3911 14.3704 49.2999 14.3704H120.837V35.3911C120.837 52.0901 134.369 65.6004 151.047 65.6004H308.932C325.631 65.6004 339.142 52.0691 339.142 35.3911V14.3704H410.658C424.567 14.3704 435.853 25.636 435.853 39.5868V789.324H435.874Z" fill="#18171B"/>
</svg>
