<svg width="78" height="78" viewBox="0 0 78 78" fill="none" xmlns="http://www.w3.org/2000/svg">
<path d="M68.25 39.715C68.25 21.8725 54.405 9.75 39 9.75C23.7575 9.75 9.75 21.6125 9.75 39.91C7.8 41.015 6.5 43.095 6.5 45.5V52C6.5 55.575 9.425 58.5 13 58.5H16.25V38.675C16.25 26.0975 26.4225 15.925 39 15.925C51.5775 15.925 61.75 26.0975 61.75 38.675V61.75H35.75V68.25H61.75C65.325 68.25 68.25 65.325 68.25 61.75V57.785C70.1675 56.7775 71.5 54.795 71.5 52.455V44.98C71.5 42.705 70.1675 40.7225 68.25 39.715Z" fill="#F4F4F4"/>
<path d="M29.25 45.5C31.0449 45.5 32.5 44.0449 32.5 42.25C32.5 40.4551 31.0449 39 29.25 39C27.4551 39 26 40.4551 26 42.25C26 44.0449 27.4551 45.5 29.25 45.5Z" fill="#F4F4F4"/>
<path d="M48.75 45.5C50.5449 45.5 52 44.0449 52 42.25C52 40.4551 50.5449 39 48.75 39C46.9551 39 45.5 40.4551 45.5 42.25C45.5 44.0449 46.9551 45.5 48.75 45.5Z" fill="#F4F4F4"/>
<path d="M58.5 35.8475C56.94 26.585 48.88 19.5 39.1625 19.5C29.315 19.5 18.72 27.6575 19.565 40.4625C27.5925 37.18 33.6375 30.03 35.36 21.32C39.6175 29.8675 48.36 35.75 58.5 35.8475Z" fill="#F4F4F4"/>
</svg>
